<svg width="181" height="41" viewBox="0 0 181 41" fill="none" xmlns="http://www.w3.org/2000/svg">
<g clip-path="url(#clip0_2054_12)">
<path d="M37.9998 33.8334H3.33317C1.86095 33.8334 0.666504 32.639 0.666504 31.1667V9.83341C0.666504 8.36119 1.86095 7.16675 3.33317 7.16675H37.9998C39.4721 7.16675 40.6665 8.36119 40.6665 9.83341V31.1667C40.6665 32.639 39.4721 33.8334 37.9998 33.8334ZM20.4887 23.569L20.0898 26.069C20.9676 26.4445 21.9887 26.6634 23.061 26.6634C23.1465 26.6634 23.231 26.6623 23.3154 26.659H23.3032C23.4009 26.6645 23.5143 26.6679 23.6298 26.6679C24.8621 26.6679 26.0043 26.2812 26.9421 25.6223L26.9232 25.6345C27.7743 25.0034 28.3209 24.0023 28.3209 22.8734C28.3209 22.8679 28.3209 22.8623 28.3209 22.8567V22.8579C28.3209 21.6356 27.5032 20.6201 25.8909 19.8356C25.4176 19.6045 25.0132 19.3623 24.6332 19.089L24.6587 19.1067C24.4387 18.9623 24.2921 18.7234 24.2776 18.449V18.4467C24.2954 18.1579 24.4609 17.9112 24.6987 17.7801L24.7032 17.7779C25.0165 17.5956 25.3921 17.4879 25.7943 17.4879C25.8409 17.4879 25.8876 17.489 25.9343 17.4923H25.9276H26.0165C26.0421 17.4923 26.0721 17.4912 26.1021 17.4912C26.8176 17.4912 27.4965 17.6456 28.1087 17.9223L28.0776 17.9101L28.3376 18.049L28.7365 15.6367C27.9865 15.3401 27.1165 15.1679 26.2065 15.1679C26.1887 15.1679 26.1698 15.1679 26.1521 15.1679H26.1554C26.0843 15.1645 26.0009 15.1623 25.9176 15.1623C24.6998 15.1623 23.571 15.5479 22.6476 16.2034L22.6654 16.1912C21.8298 16.7867 21.2909 17.7512 21.2909 18.8423V18.8479C21.2798 20.0234 22.1265 21.039 23.8087 21.8701C24.2532 22.0645 24.6365 22.3023 24.9798 22.5879L24.9721 22.5812C25.1665 22.7456 25.2921 22.9867 25.3021 23.2567V23.259V23.2612C25.3021 23.6156 25.0909 23.9201 24.7865 24.0567L24.7809 24.059C24.4476 24.2345 24.0521 24.3367 23.6321 24.3367C23.6154 24.3367 23.5976 24.3367 23.5809 24.3367H23.5832C23.5587 24.3367 23.5287 24.3367 23.4998 24.3367C22.5476 24.3367 21.6454 24.1256 20.8365 23.7479L20.8754 23.7645L20.4943 23.5734L20.4887 23.569ZM31.7387 24.8367H35.4221C35.4813 25.0908 35.5972 25.6464 35.7698 26.5034H38.4443L36.1176 15.3579H33.8954C33.8565 15.3545 33.811 15.3523 33.7643 15.3523C33.1398 15.3523 32.6054 15.739 32.3876 16.2856L32.3843 16.2956L28.1176 26.5034H31.1398L31.7465 24.8379L31.7387 24.8367ZM17.2121 15.3579L15.4054 26.5034H18.2876L20.0932 15.3579H17.2121ZM6.13539 17.6323L8.47984 26.4856H11.5176L16.0454 15.3579H12.9943L10.1787 22.9623L9.88317 21.4167L8.87873 16.2956C8.77762 15.7523 8.30762 15.3456 7.74206 15.3456C7.68428 15.3456 7.6265 15.3501 7.57095 15.3579L7.57762 15.3567H2.92539L2.89095 15.5823C6.47317 16.4923 8.8265 18.4556 9.8865 21.4156C9.54317 20.5356 9.04206 19.7856 8.41317 19.1667L8.41206 19.1656C7.78206 18.519 7.02539 18.0001 6.18206 17.6456L6.13762 17.629L6.13539 17.6323ZM34.9543 22.5445H32.5543C32.7165 22.1164 33.0987 21.0793 33.701 19.4334L33.7521 19.2767C33.7987 19.1612 33.8565 19.0101 33.9298 18.8256C34.0032 18.6412 34.0521 18.4901 34.0854 18.3745L34.2943 19.329L34.9532 22.5401L34.9543 22.5445Z" fill="white"/>
</g>
<g clip-path="url(#clip1_2054_12)">
<path d="M72.7178 7.67944H108.615C109.749 7.67944 110.667 8.59739 110.667 9.73073V31.2692C110.667 32.4025 109.749 33.3205 108.615 33.3205H72.7178C71.5845 33.3205 70.6665 32.4025 70.6665 31.2692V9.73073C70.6665 8.59739 71.5845 7.67944 72.7178 7.67944Z" fill="white"/>
<path d="M98.5688 20.0129V25.5514H101.646V22.2693H105.133C106.6 22.2591 107.846 21.3206 108.318 20.0129H98.5688Z" fill="#333333"/>
<path d="M98.1587 15.4487C98.3382 17.7103 100.482 19.5 103.097 19.5C103.107 19.5 108.446 19.5 108.446 19.5C108.487 19.2949 108.507 19.0795 108.507 18.859C108.507 16.9821 106.995 15.4641 105.123 15.4487H98.1587Z" fill="#333333"/>
<path d="M93.6049 19.4436V19.4385V19.4436C93.6408 19.3821 93.6972 19.3462 93.769 19.3462C93.8715 19.3462 93.9485 19.4282 93.9536 19.5257V25.5H97.0305V15.4487H93.9536C93.5638 15.4641 93.1228 15.7462 92.9587 16.1L90.5126 21.3513C90.5074 21.3718 90.4972 21.3923 90.4869 21.4128C90.451 21.4641 90.3895 21.5 90.3177 21.5C90.2049 21.5 90.1126 21.4077 90.1126 21.2949V15.4487H87.0356V25.5H90.1126C90.4972 25.4795 90.928 25.1974 91.0921 24.8487L93.6049 19.459C93.5997 19.4539 93.6049 19.4487 93.6049 19.4436Z" fill="#333333"/>
<path d="M82.1177 19.618L80.3177 25.5H78.1024L76.3075 19.6128C76.2921 19.5205 76.2101 19.4487 76.1075 19.4487C75.9947 19.4487 75.9075 19.541 75.9075 19.6487V25.4949H72.8306V15.4436H75.4716H76.2562C76.8203 15.4436 77.4152 15.8846 77.5793 16.4231L79.0767 21.3205C79.1536 21.5667 79.2716 21.5616 79.3485 21.3205L80.846 16.4231C81.0101 15.8795 81.6049 15.4436 82.169 15.4436H82.9536H85.5947V25.4949H82.5177V19.6487C82.5177 19.6487 82.5177 19.6487 82.5177 19.6436C82.5177 19.5308 82.4254 19.4436 82.3177 19.4436C82.2152 19.4487 82.1331 19.5205 82.1177 19.618Z" fill="#333333"/>
</g>
<g clip-path="url(#clip2_2054_12)">
<path d="M151.326 18.7813C150.851 18.7813 150.447 18.8779 150.214 18.9487C150.08 18.9894 149.988 19.1056 149.965 19.2435V19.2435C149.912 19.5582 150.237 19.8392 150.554 19.8005C150.697 19.783 150.859 19.7714 151.035 19.7714C151.442 19.7714 151.739 19.8167 151.739 20.1474V20.1474C151.739 20.3158 151.593 20.4131 151.425 20.4037C151.354 20.3997 151.284 20.3967 151.234 20.3967C150.288 20.3967 149.295 20.799 149.295 22.0164C149.295 22.9753 149.946 23.1942 150.351 23.1942C150.838 23.1942 151.15 22.9948 151.318 22.8475C151.404 22.7723 151.463 22.7966 151.453 22.9104V22.9104C151.444 23.0181 151.528 23.1106 151.637 23.1106H151.972C152.216 23.1106 152.424 22.9306 152.458 22.6884L152.795 20.329C152.816 20.177 152.832 20.0229 152.814 19.8704C152.687 18.8173 151.688 18.7813 151.326 18.7813ZM150.786 22.2777C150.447 22.2777 150.358 22.0192 150.358 21.8648C150.358 21.566 150.521 21.2062 151.322 21.2062V21.2062C151.464 21.2067 151.567 21.3302 151.541 21.4705C151.481 21.7905 151.281 22.2777 150.786 22.2777ZM154.2 20.1467C154.2 20.6927 155.503 20.4243 155.503 21.7827C155.503 23.2352 154.096 23.1715 153.85 23.1715C153.753 23.1715 153.662 23.1701 153.579 23.1675C153.028 23.1507 152.686 22.6265 152.769 22.0816V22.0816C152.771 22.0745 153.23 22.2487 153.74 22.2487C154.035 22.2487 154.417 22.2197 154.417 21.8684C154.417 21.3401 153.049 21.4675 153.049 20.2154C153.049 19.1113 153.869 18.7884 154.678 18.7884C154.882 18.7884 155.06 18.7975 155.208 18.8098C155.48 18.8325 155.657 19.0823 155.618 19.3521V19.3521C155.579 19.6254 155.334 19.82 155.058 19.8021C154.95 19.795 154.852 19.7898 154.802 19.7898C154.412 19.7905 154.2 19.8755 154.2 20.1467ZM156.795 21.8096C156.771 21.959 156.812 22.1623 157.193 22.1623V22.1623C157.342 22.1623 157.455 22.2626 157.433 22.4108L157.387 22.7245C157.357 22.9278 157.212 23.1034 157.012 23.1466C156.875 23.1761 156.706 23.2013 156.518 23.2027C156.009 23.2076 155.647 22.9215 155.647 22.2763C155.647 21.9143 156.081 19.3633 156.237 18.5187C156.27 18.3436 156.392 18.248 156.57 18.248H157.062C157.231 18.248 157.359 18.4003 157.33 18.5667L157.322 18.6116C157.297 18.7545 157.407 18.8854 157.552 18.8854V18.8854C157.694 18.8854 157.803 19.0102 157.784 19.1504L157.719 19.6233C157.697 19.7897 157.555 19.9137 157.387 19.9137V19.9137C157.222 19.9137 157.082 20.0331 157.056 20.1956L156.795 21.8096ZM-nan -nanL161.011 21.3585C161.011 21.3585 161.155 20.6503 161.155 20.362C161.155 19.6418 160.797 18.7636 159.597 18.7636C158.498 18.7643 157.684 19.9484 157.684 21.2869C157.684 22.8316 158.703 23.1984 159.572 23.1984C160.024 23.1984 160.333 23.1413 160.517 23.0915C160.652 23.0548 160.741 22.9376 160.767 22.7998V22.7998C160.832 22.4447 160.463 22.1452 160.107 22.2033C159.992 22.222 159.874 22.2338 159.759 22.2338C159.531 22.2338 159.355 22.2008 159.219 22.1476C158.684 21.9373 159.197 21.3585 159.772 21.3585H161.011L-nan -nanL-nan -nanZM159.601 19.743C159.796 19.743 159.918 19.8126 159.994 19.9094C160.2 20.1735 159.832 20.4916 159.497 20.4916V20.4916C159.162 20.4916 158.901 20.1899 159.129 19.9446C159.236 19.8299 159.387 19.743 159.601 19.743ZM148.611 17.9102C149.175 17.9102 149.603 18.4157 149.511 18.9715L148.902 22.6519C148.858 22.9194 148.626 23.1155 148.355 23.1155H148.098C147.892 23.1155 147.735 22.9317 147.768 22.7285V22.7285C147.831 22.327 147.259 22.1806 147.122 22.5633L147.011 22.8733C146.959 23.0186 146.821 23.1155 146.667 23.1155H146.51C146.322 23.1155 146.168 22.9655 146.163 22.7774V22.7774C146.153 22.3576 145.545 22.3141 145.474 22.7281L145.459 22.8192C145.43 22.9903 145.282 23.1155 145.108 23.1155H144.969C144.647 23.1155 144.403 22.8264 144.456 22.5091L145.106 18.6379C145.176 18.2178 145.54 17.9102 145.966 17.9102H146.359C146.616 17.9102 146.827 18.1167 146.831 18.3745V18.3745C146.84 18.9048 147.582 19.0198 147.751 18.5172L147.837 18.2633C147.908 18.0523 148.106 17.9102 148.329 17.9102H148.611ZM163.221 16.4611C163.379 16.8293 163.098 17.2246 162.698 17.2246H158.741C158.331 17.2246 157.989 16.9106 158.174 16.5446V16.5446C158.265 16.3643 158.517 16.1248 158.719 16.1248H162.7C162.926 16.1248 163.132 16.2532 163.221 16.4611V16.4611ZM161.857 14.1647C162.147 14.5333 161.869 15.0461 161.4 15.0461H160.028C159.576 15.0461 159.3 14.5544 159.559 14.1849V14.1849C159.665 14.0346 159.839 13.947 160.023 13.947H161.401C161.579 13.947 161.748 14.0253 161.857 14.1647V14.1647ZM160.669 28.1085C160.666 28.1116 160.66 28.1117 160.657 28.1085C160.541 28.0035 160.428 27.8951 160.318 27.7838C160.021 27.4818 160.25 26.9923 160.674 26.9923V26.9923C161.098 26.9923 161.322 27.4777 161.022 27.7766C160.914 27.8837 160.804 27.9886 160.691 28.0911C160.691 28.0913 160.69 28.0915 160.69 28.0915H160.689C160.689 28.0915 160.688 28.0918 160.689 28.0919V28.0919C160.689 28.0921 160.689 28.0925 160.689 28.0927C160.682 28.0979 160.676 28.1031 160.669 28.1085ZM162.66 25.6559C162.558 25.8312 162.368 25.9342 162.166 25.9342H159.177C158.973 25.9342 158.783 25.8305 158.679 25.655V25.655C158.458 25.2827 158.739 24.8351 159.171 24.8351H162.163C162.594 24.8351 162.877 25.2833 162.66 25.6559V25.6559ZM163.579 18.8337C163.687 18.8326 163.744 18.9398 163.699 19.0375C163.641 19.1664 163.585 19.308 163.529 19.4963C163.434 19.8164 163.023 20.0431 162.849 20.3279C162.599 20.7367 162.494 21.6162 162.325 22.6625C162.282 22.9295 162.051 23.124 161.78 23.124V23.124C161.437 23.124 161.176 22.817 161.23 22.4783L161.74 19.3102C161.779 19.0666 161.99 18.8875 162.236 18.8875H162.722C162.776 18.8875 162.818 18.9362 162.809 18.99V18.99C162.794 19.0883 162.971 19.1617 163.043 19.0926C163.187 18.9541 163.372 18.8337 163.579 18.8337V18.8337ZM165.814 22.1347C165.828 22.1347 165.842 22.1343 165.857 22.1335C166.234 22.1138 166.632 22.3878 166.571 22.7602V22.7602C166.541 22.9416 166.407 23.0887 166.227 23.1248C166.027 23.1648 165.765 23.2083 165.566 23.2083C164.261 23.2083 163.599 22.3082 163.599 20.9449C163.599 18.8889 164.827 17.794 166.088 17.794C166.387 17.794 166.712 17.868 166.953 17.9381C167.17 18.0015 167.294 18.22 167.26 18.444V18.444C167.205 18.8016 166.772 18.9952 166.416 18.9323C166.327 18.9168 166.234 18.9073 166.137 18.9073C165.394 18.9073 164.727 19.617 164.727 20.9073C164.727 21.5426 165.038 22.1347 165.814 22.1347ZM176.484 22.5129C176.431 22.5412 176.39 22.5823 176.36 22.6361C176.33 22.6892 176.315 22.7444 176.315 22.8018C176.315 22.8592 176.33 22.9137 176.36 22.9661C176.389 23.0185 176.43 23.0603 176.482 23.0901C176.535 23.1191 176.59 23.134 176.647 23.134C176.705 23.134 176.76 23.1191 176.812 23.0901C176.864 23.0603 176.905 23.0185 176.934 22.9661C176.965 22.9137 176.978 22.8592 176.978 22.8018C176.978 22.7437 176.964 22.6885 176.934 22.6361C176.905 22.5823 176.863 22.5412 176.81 22.5129C176.757 22.4838 176.703 22.4697 176.647 22.4697C176.592 22.4697 176.538 22.4838 176.484 22.5129ZM176.887 22.6623C176.912 22.7069 176.925 22.7529 176.925 22.8004C176.925 22.8478 176.913 22.8946 176.888 22.9378C176.864 22.9817 176.83 23.015 176.785 23.0412C176.742 23.0653 176.696 23.078 176.649 23.078C176.601 23.078 176.555 23.0653 176.511 23.0412C176.467 23.0164 176.434 22.9824 176.408 22.9378C176.383 22.8932 176.371 22.8478 176.371 22.8004C176.371 22.7529 176.383 22.7069 176.409 22.6623C176.434 22.6184 176.467 22.5844 176.513 22.5596C176.558 22.5348 176.603 22.5242 176.649 22.5242C176.695 22.5242 176.74 22.5362 176.783 22.5596C176.829 22.5844 176.862 22.6177 176.887 22.6623ZM172.449 21.4045C172.449 22.3004 172.895 23.1779 173.804 23.1779C174.16 23.1779 174.429 23.0433 174.601 22.9202C174.67 22.8708 174.796 22.9328 174.786 23.017V23.017C174.78 23.0671 174.819 23.1113 174.869 23.1113H175.38C175.643 23.1113 175.868 22.92 175.91 22.6599L176.572 18.542C176.625 18.2127 176.37 17.9143 176.037 17.9149L175.962 17.9151C175.74 17.9155 175.551 18.0771 175.515 18.2967V18.2967C175.451 18.6958 174.83 18.8722 174.429 18.8191C174.383 18.8129 174.335 18.8096 174.285 18.8096C173.283 18.8103 172.449 20.0178 172.449 21.4045ZM175.068 20.7678C175.068 21.345 174.783 22.1163 174.191 22.1163C173.797 22.1163 173.613 21.7862 173.613 21.2678C173.613 20.4201 173.993 19.8613 174.474 19.8613C174.866 19.862 175.068 20.1318 175.068 20.7678ZM176.846 26.2416V26.2416C176.841 26.2369 176.844 26.2183 176.851 26.2159C176.866 26.2104 176.879 26.2018 176.89 26.1906C176.908 26.1715 176.918 26.1488 176.918 26.1226C176.918 26.1042 176.912 26.0865 176.902 26.0702C176.891 26.0539 176.875 26.0419 176.856 26.0355C176.839 26.0284 176.808 26.0249 176.766 26.0249V26.0249C176.698 26.0249 176.643 26.0801 176.643 26.1481V26.3535C176.643 26.3695 176.656 26.3825 176.672 26.3825V26.3825C176.688 26.3825 176.701 26.3695 176.701 26.3535V26.2636C176.701 26.2452 176.716 26.2303 176.734 26.2303V26.2303C176.754 26.2303 176.771 26.2345 176.78 26.243C176.795 26.2551 176.816 26.2827 176.841 26.3259L176.863 26.3671C176.869 26.3766 176.879 26.3825 176.89 26.3825V26.3825C176.913 26.3825 176.927 26.3567 176.915 26.3369L176.9 26.3124C176.878 26.2799 176.861 26.2565 176.846 26.2416ZM176.771 26.1821H176.754C176.724 26.1821 176.7 26.158 176.7 26.1283V26.1283C176.7 26.0986 176.724 26.0745 176.754 26.0745H176.766C176.794 26.0745 176.812 26.0766 176.823 26.0808C176.834 26.0851 176.841 26.0915 176.848 26.0993C176.853 26.1078 176.856 26.117 176.856 26.1269C176.856 26.1432 176.851 26.1573 176.839 26.1673C176.827 26.1772 176.803 26.1821 176.771 26.1821ZM179.637 7.53906H141.696C141.127 7.53906 140.667 8.00011 140.667 8.56881V32.4321C140.667 33.0008 141.127 33.4619 141.696 33.4619H179.637C180.206 33.4619 180.667 33.0008 180.667 32.4321V8.56881C180.667 8.00011 180.206 7.53906 179.637 7.53906ZM177.075 26.3634C177.045 26.4173 177.005 26.4583 176.953 26.4874C176.9 26.5164 176.845 26.5313 176.788 26.5313C176.73 26.5313 176.675 26.5164 176.623 26.4874C176.571 26.4583 176.53 26.4173 176.499 26.3634C176.47 26.3117 176.455 26.2565 176.455 26.1991C176.455 26.1418 176.47 26.0872 176.5 26.0334C176.529 25.9796 176.572 25.9392 176.624 25.9102C176.677 25.8825 176.731 25.8677 176.788 25.8677C176.844 25.8677 176.897 25.8825 176.95 25.9102C177.003 25.9392 177.045 25.9796 177.074 26.0334C177.103 26.0872 177.118 26.1425 177.118 26.1991C177.118 26.2558 177.105 26.3124 177.075 26.3634ZM177.817 20.5008C177.819 26.1701 173.225 30.7678 167.555 30.7692V30.7692C163.273 30.7704 158.065 30.7664 153.783 30.7664V30.7664C148.116 30.7664 143.517 26.168 143.517 20.5008C143.517 14.8563 148.08 10.2714 153.717 10.2345C153.739 10.2345 153.761 10.2345 153.783 10.2345V10.2345C158.066 10.2345 163.267 10.2335 167.55 10.2324V10.2324C173.219 10.2303 177.814 14.823 177.819 20.4905C177.819 20.4939 177.817 20.4974 177.817 20.5008V20.5008ZM176.627 22.6276C176.558 22.6276 176.502 22.6834 176.502 22.7522V22.9555C176.502 22.9715 176.515 22.9845 176.531 22.9845V22.9845C176.547 22.9845 176.56 22.9715 176.56 22.9555V22.8663C176.56 22.8479 176.575 22.833 176.594 22.833V22.833C176.614 22.833 176.63 22.8372 176.64 22.845C176.655 22.8578 176.675 22.8847 176.701 22.9293L176.723 22.9697C176.728 22.9793 176.738 22.9852 176.749 22.9852V22.9852C176.773 22.9852 176.787 22.9595 176.775 22.9396L176.759 22.9151C176.739 22.8818 176.72 22.8585 176.707 22.8443V22.8443C176.701 22.839 176.704 22.8213 176.711 22.8186C176.726 22.813 176.739 22.8045 176.75 22.7933C176.768 22.7749 176.778 22.7508 176.778 22.7253C176.778 22.7076 176.773 22.6892 176.761 22.6729C176.75 22.6573 176.735 22.6453 176.717 22.6382C176.7 22.6311 176.669 22.6276 176.627 22.6276V22.6276ZM176.708 22.7005C176.715 22.7097 176.717 22.7175 176.717 22.7296C176.717 22.7452 176.711 22.7586 176.7 22.7685C176.687 22.7791 176.665 22.7834 176.632 22.7834H176.616C176.586 22.7834 176.562 22.7593 176.562 22.7296V22.7296C176.562 22.6998 176.586 22.6757 176.616 22.6757H176.627C176.638 22.6757 176.647 22.676 176.655 22.6766C176.675 22.678 176.698 22.6832 176.708 22.7005V22.7005ZM169.044 18.7813C168.568 18.7813 168.164 18.8779 167.931 18.9487C167.798 18.9894 167.706 19.1055 167.682 19.2432V19.2432C167.629 19.558 167.954 19.8392 168.271 19.8005C168.414 19.783 168.576 19.7714 168.751 19.7714C169.159 19.7714 169.457 19.8167 169.457 20.1474V20.1474C169.457 20.3164 169.309 20.4131 169.14 20.4037C169.07 20.3997 169 20.3967 168.949 20.3967C168.004 20.3967 167.012 20.799 167.012 22.0164C167.012 22.9753 167.664 23.1942 168.067 23.1942C168.554 23.1942 168.867 22.9944 169.035 22.847C169.121 22.7718 169.18 22.7963 169.17 22.9101V22.9101C169.16 23.0179 169.245 23.1106 169.354 23.1106H169.688C169.932 23.1106 170.14 22.9308 170.174 22.6887L170.543 20.1007C170.545 18.8223 169.431 18.7813 169.044 18.7813ZM168.506 22.2777C168.166 22.2777 168.078 22.0192 168.078 21.8648C168.078 21.566 168.24 21.2062 169.041 21.2062V21.2062C169.184 21.2067 169.286 21.3304 169.26 21.4704C169.2 21.7905 169 22.2777 168.506 22.2777ZM172.706 19.4969C172.611 19.8164 172.2 20.042 172.026 20.3263C171.776 20.7347 171.671 21.6146 171.502 22.662C171.459 22.929 171.227 23.1233 170.957 23.1233V23.1233C170.614 23.1233 170.352 22.8162 170.406 22.4774L170.916 19.3101C170.956 19.0661 171.166 18.8868 171.413 18.8868H171.899C171.953 18.8868 171.995 18.9357 171.987 18.9897V18.9897C171.971 19.0884 172.148 19.1617 172.22 19.0924C172.365 18.9537 172.55 18.833 172.758 18.833V18.833C172.865 18.833 172.921 18.9402 172.877 19.0375C172.818 19.1664 172.762 19.3082 172.706 19.4969Z" fill="white"/>
</g>
<defs>
<clipPath id="clip0_2054_12">
<rect width="40" height="40" fill="white" transform="translate(0.666504 0.5)"/>
</clipPath>
<clipPath id="clip1_2054_12">
<rect width="40" height="25.641" fill="white" transform="translate(70.6665 7.67944)"/>
</clipPath>
<clipPath id="clip2_2054_12">
<rect width="40" height="40" fill="white" transform="translate(140.667 0.5)"/>
</clipPath>
</defs>
</svg>
